<?xml version="1.0" encoding="UTF-8"?>
<svg xmlns="http://www.w3.org/2000/svg" xmlns:xlink="http://www.w3.org/1999/xlink" width="16px" height="16px" viewBox="0 0 16 16" version="1.1">
<g id="surface1">
<path style=" stroke:none;fill-rule:nonzero;fill:rgb(0%,0%,0%);fill-opacity:1;" d="M 15.78125 13.835938 L 12.664062 10.71875 C 12.523438 10.578125 12.335938 10.5 12.132812 10.5 L 11.625 10.5 C 12.488281 9.398438 13 8.007812 13 6.5 C 13 2.910156 10.089844 0 6.5 0 C 2.910156 0 0 2.910156 0 6.5 C 0 10.089844 2.910156 13 6.5 13 C 8.007812 13 9.398438 12.488281 10.5 11.625 L 10.5 12.132812 C 10.5 12.335938 10.578125 12.523438 10.71875 12.664062 L 13.835938 15.78125 C 14.128906 16.074219 14.601562 16.074219 14.894531 15.78125 L 15.777344 14.898438 C 16.070312 14.601562 16.070312 14.128906 15.78125 13.835938 Z M 6.5 10.5 C 4.289062 10.5 2.5 8.710938 2.5 6.5 C 2.5 4.289062 4.289062 2.5 6.5 2.5 C 8.710938 2.5 10.5 4.289062 10.5 6.5 C 10.5 8.710938 8.710938 10.5 6.5 10.5 Z M 6.5 10.5 "/>
</g>
</svg>
